PathFileType	4	(X/Y/Z)	C:/Users/beibeiliu/ov580/test_trc/User1\sequence.6_training_dense_left.trc
DataRate	CameraRate	NumFrames	NumMarkers	Units	OrigDataRate	OrigDataStartFrame	OrigNumFrames
120	120	24	19	mm	120	35	277
Frame#	Time	ThumbCMC			ThumbMCP			ThumbIP			ThumbTip			IndexMCP			IndexPIP			IndexTip			MiddleMCP			MiddlePIP			MiddleTip			RingMCP			RingPIP			RingTip			PinkyMCP			PinkyPIP			PinkyTip			BackHand1			BackHand2			BackHand3	
		X0	Y0	Z0	X1	Y1	Z1	X2	Y2	Z2	X3	Y3	Z3	X4	Y4	Z4	X5	Y5	Z5	X6	Y6	Z6	X7	Y7	Z7	X8	Y8	Z8	X9	Y9	Z9	X10	Y10	Z10	X11	Y11	Z11	X12	Y12	Z12	X13	Y13	Z13	X14	Y14	Z14	X15	Y15	Z15	X16	Y16	Z16	X17	Y17	Z17	X18	Y18	Z18	
34	0.283333	-156.414	91.5386	22.9401	-138.579	61.5973	2.14838	-137.903	46.8881	-22.5219	-144.544	30.7605	-43.7914	-161.386	105.525	-57.7158	-161.229	104.728	-87.5035	-164.016	106.263	-107.15	-177.061	73.627	-68.6379	-167.465	39.9867	-63.2416	-164.73	35.942	-23.9698	-198.709	57.8212	-57.0679	-180.905	29.5577	-44.3209	-179.254	30.4847	-9.88436	-220.662	52.8773	-41.7339	-197.24	32.8355	-30.2378	-185.564	47.143	-3.99355	-215.903	103.538	-14.4034	-223.505	108.609	22.7051	-190.478	116.248	4.92959	
35	0.291667	-154.876	89.4837	24.685	-140.31	60.9182	-1.26106	-140.157	46.2504	-22.9032	-146.114	28.7088	-43.3152	-159.212	105.91	-59.1957	-155.241	105.125	-87.2002	-159.546	104.594	-107.739	-179.853	71.039	-68.8171	-165.406	39.8437	-62.4844	-163.092	34.0123	-24.6292	-198.62	56.3136	-56.719	-181.904	27.5354	-42.8561	-178.384	29.1316	-12.0334	-217.416	48.093	-44.2677	-196.643	31.9947	-28.9799	-187.974	43.4903	-3.31429	-217.919	102.744	-16.9445	-224.667	108.884	20.0883	-189.148	114.223	6.9337	
36	0.3	-154.492	89.4517	23.8998	-141.98	60.1685	-0.556826	-140.218	44.4155	-21.8489	-141.477	23.6451	-44.0482	-161.53	102.136	-60.506	-158.347	100.782	-83.3856	-159.376	99.1454	-109.738	-178.12	72.6055	-66.8671	-164.727	40.3824	-64.3891	-168.078	31.4606	-25.6349	-198.661	57.374	-55.6165	-183.956	28.9872	-45.0373	-178.07	30.1881	-7.8218	-214.853	48.6773	-43.1815	-196.845	33.3715	-29.431	-188.804	45.5	-0.231572	-219.91	100.653	-14.1324	-223.707	108.945	18.593	-189.151	113.972	5.9477	
37	0.308333	-155.82	88.0254	21.7097	-141.88	58.2535	-0.879959	-139.693	41.7178	-19.7051	-140.975	21.1695	-41.3123	-157.999	96.9419	-64.8426	-153.188	92.8731	-87.4208	-149.999	87.2724	-111.566	-179.475	70.4348	-64.9672	-167.287	36.5629	-61.5333	-169.476	30.4754	-23.9179	-199.278	54.779	-55.0873	-181.186	26.1611	-40.1285	-182.657	28.3559	-4.70393	-219.777	50.7124	-42.034	-200.295	29.7766	-27.7601	-186.561	44.4166	-3.37194	-214.603	101.822	-12.3526	-225.999	108.328	18.9919	-184.199	115.126	4.196	
38	0.316667	-157.277	87.4913	22.1569	-140.128	54.6571	3.62523	-137.56	37.6287	-19.5544	-144.518	20.1586	-36.4548	-154.5	91.1086	-60.5239	-145.595	80.1927	-85.9556	-147.629	67.4903	-109.288	-173.391	68.6431	-64.4149	-166.693	33.0017	-58.6957	-169.726	30.1868	-18.137	-194.373	52.7135	-54.893	-183.276	24.325	-39.5932	-181.931	27.4687	-6.34467	-215.92	48.1356	-41.5654	-201.134	28.4567	-26.0414	-190.505	47.3186	3.26783	-216.017	99.4589	-14.2487	-219.282	109.996	17.8728	-182.644	115.587	4.38279	
39	0.325	-157.561	85.9126	22.6965	-144.682	54.9531	5.70761	-139.521	35.1976	-20.6089	-145.656	16.0409	-41.464	-151.668	80.7376	-64.1648	-146.013	68.6175	-81.2901	-143.059	47.9449	-103.688	-176.304	61.3746	-66.2169	-167.472	28.8288	-55.6688	-171.095	26.4471	-20.3333	-193.905	51.2415	-53.9172	-184.98	22.1506	-36.4111	-185.317	27.5615	-1.98019	-216.305	44.5183	-41.5219	-200.566	27.9269	-24.1253	-192.862	48.0073	1.5337	-212.038	101.231	-15.5677	-220.811	108.387	16.8858	-180.97	113.263	6.23825	
40	0.333333	-151.864	83.2773	22.8829	-142.676	52.984	2.91668	-138.377	35.0317	-20.2348	-143.167	15.2488	-39.8168	-152.316	76.4848	-64.0059	-144.934	59.58	-80.3528	-145.887	39.094	-97.7238	-175.767	60.5008	-65.2805	-167.597	28.0114	-57.6352	-165.915	26.6993	-18.3839	-197.014	48.038	-53.5687	-185.15	20.2315	-37.3693	-182.409	28.5955	-1.89438	-216.346	47.3613	-41.9884	-202.449	25.6672	-25.1937	-189.772	44.7869	-0.064189	-215.127	97.7419	-18.8059	-219.822	108.207	17.2913	-183.618	112.408	4.51278	
41	0.341667	-152.289	84.8894	23.0265	-144.432	53.6501	5.92796	-138.19	33.7286	-22.2225	-145.759	17.9083	-41.0011	-151.36	79.4008	-61.0622	-146.166	63.3902	-79.6232	-146.706	41.4176	-97.5248	-176.132	60.5488	-66.5819	-166.507	28.1247	-58.4395	-171.154	26.0356	-19.0651	-198.635	48.597	-54.2357	-183.466	21.6513	-38.3814	-180.68	27.8778	-4.82797	-219.421	43.9633	-42.0035	-201.196	25.9588	-25.5404	-192.713	44.9833	2.73195	-213.812	98.0019	-16.7555	-217.498	107.727	17.6459	-182.087	112.237	6.31436	
42	0.35	-155.188	83.8982	20.5454	-140.617	53.4212	4.09438	-143.036	36.8767	-23.2189	-147.435	20.0055	-39.3102	-150.932	85.4405	-61.0469	-146.536	67.9795	-84.856	-144.346	48.5622	-105.933	-175.636	61.437	-66.9811	-168.321	29.1554	-59.0977	-166.303	29.0931	-17.9994	-198.56	50.0058	-53.8325	-187.658	20.3554	-37.1232	-181.897	27.2255	-5.63762	-219.486	45.0133	-41.6647	-200.186	26.8612	-26.7281	-190.245	44.4837	-0.723145	-214.468	99.0336	-13.5442	-220.082	106.807	19.7562	-184.222	111.86	6.81998	
43	0.358333	-154.584	85.2927	23.0307	-144.817	55.874	2.6256	-141.354	39.0187	-19.1581	-147.662	19.8138	-42.5717	-157.623	89.3609	-62.8791	-148.787	81.3253	-83.8789	-149.332	66.903	-107.211	-179.278	67.1339	-65.2733	-165.25	31.7684	-60.6103	-168.304	28.53	-23.4335	-196.784	50.3223	-55.5648	-187.021	23.2097	-43.0875	-185.028	25.44	-7.29929	-216.375	47.047	-43.3238	-201.25	27.6645	-28.7468	-189.731	41.5571	-2.74369	-213.403	100.176	-15.3033	-223.991	107.367	20.2658	-183.426	113.14	8.65237	
44	0.366667	-158.995	86.4394	24.6353	-141.843	55.5886	2.95682	-138.694	39.4037	-25.1823	-148.383	24.9401	-42.6052	-156.873	95.1207	-59.5411	-153.731	90.0757	-83.3629	-154.321	81.0438	-111.677	-177.063	71.8878	-64.8135	-169.016	37.1433	-65.8493	-166.635	28.732	-25.8269	-198.427	51.6891	-56.8569	-187.643	24.8651	-46.2018	-185.03	24.9462	-10.145	-219.482	52.068	-42.2143	-201.362	28.1667	-28.1595	-188.915	45.6029	-2.54006	-214.966	100.427	-12.31	-219.015	108.524	20.9473	-182.547	114.926	5.87061	
45	0.375	-156.565	86.1299	22.5882	-143.115	56.5056	-0.430932	-142.606	41.8588	-21.9031	-145.206	25.5833	-40.6894	-157.344	99.038	-60.1001	-153.543	95.382	-85.6305	-155.676	91.5185	-111.198	-176.654	71.6585	-67.7905	-170.126	36.3648	-64.4134	-167.458	29.1797	-28.7775	-195.816	58.091	-57.8414	-186.679	27.9284	-48.7177	-183.434	26.3668	-11.134	-218.612	49.6747	-44.536	-203.573	28.6518	-31.6049	-188.954	40.1798	-5.51198	-218.492	101.075	-11.9777	-219.877	110.998	23.1217	-184.11	114.658	8.42617	
46	0.383333	-154.239	87.2527	20.3006	-140.758	56.7904	0.715032	-141.231	43.1591	-23.6629	-150.163	28.0421	-45.6777	-158.268	101.231	-58.7761	-157.813	99.0748	-82.4187	-162.354	96.1776	-110.019	-175.86	74.4429	-68.7453	-167.143	38.0337	-66.3556	-168.138	30.9075	-30.3527	-202.3	58.2895	-58.0661	-186.17	28.1976	-49.8095	-185.554	24.1081	-15.8365	-219.403	50.6957	-45.5678	-203.411	31.6333	-37.3281	-190.722	39.2712	-8.51177	-214.097	103.076	-13.198	-220.872	109.376	23.4059	-182.593	114.698	8.16557	
47	0.391667	-153.899	87.0138	21.7679	-145.742	59.0681	-1.03403	-138.339	43.1789	-27.3431	-144.811	26.5642	-46.2567	-159.243	102.574	-62.2904	-156.947	100.424	-82.1254	-160.285	101.418	-109.471	-179.348	77.3863	-67.4056	-171.281	40.6149	-69.3158	-166.489	32.3917	-30.9298	-199.816	56.3959	-59.2247	-186.645	29.5457	-50.1695	-184.202	24.4954	-15.5019	-219.319	55.4523	-44.5592	-203.72	31.331	-35.3868	-190.112	40.8404	-6.99453	-215.83	101.97	-10.079	-218.662	111.755	20.1879	-183.111	116.87	7.67328	
48	0.4	-156.369	89.2668	24.1848	-145.926	60.6466	0.201707	-137.943	45.0003	-26.3617	-148.883	30.7717	-46.9824	-160.875	104.459	-60.4648	-161.396	102.652	-83.9839	-164.503	103.638	-108.46	-181.852	77.7307	-67.659	-167.566	42.931	-69.0222	-164.31	35.3865	-30.1007	-198.563	62.2028	-57.0645	-189.723	28.0425	-48.4897	-180.251	28.6356	-14.6209	-220.879	52.4027	-45.5278	-201.627	32.2289	-34.7637	-189.242	38.9893	-9.78901	-218.633	103.722	-10.5289	-221.266	110.356	19.3804	-188.625	116.91	8.44207	
49	0.408333	-153.14	89.1286	20.2736	-146.135	62.0874	-0.593759	-140.949	47.2194	-25.7748	-146.498	30.5205	-48.4693	-161.719	105.57	-62.7053	-159.822	104.507	-86.6503	-162.652	105.453	-108.838	-180.354	78.7338	-69.3351	-170.674	44.7441	-69.5109	-169.933	35.6934	-29.0162	-200.704	61.2159	-59.1286	-186.812	30.3371	-48.6606	-183.995	27.0744	-16.2232	-220.158	60.6602	-43.8546	-202.295	35.9694	-38.576	-188.95	38.3898	-7.02814	-217.234	105.735	-13.279	-218.857	110.875	21.9808	-186.296	117.723	7.45734	
50	0.416667	-155.373	89.0096	24.6684	-144.929	61.2532	-1.97238	-142.128	46.744	-25.2217	-143.661	28.892	-47.8665	-158.751	105.567	-57.9435	-161.715	104.494	-86.2476	-160.32	105.389	-107.575	-180.712	79.3315	-68.372	-170.765	44.88	-69.7844	-170.3	35.0522	-33.0956	-200.091	64.4232	-58.5668	-189.159	30.1032	-47.9869	-183.648	29.9836	-14.044	-220.099	56.3178	-45.488	-205.384	33.1864	-38.4249	-187.939	39.7406	-11.1353	-217.253	106.254	-11.0744	-222.531	112.586	20.5075	-186.844	118.657	7.00584	
51	0.425	-155.461	88.1124	24.587	-142.799	59.2427	0.0618762	-143.287	46.2961	-25.5644	-145.873	29.2298	-50.7961	-159.393	104.893	-61.0017	-156.985	102.095	-85.9038	-158.644	101.792	-112.103	-179.601	80.3001	-68.0945	-168.127	48.2729	-72.2013	-170.281	36.1381	-28.9519	-197.339	64.3049	-58.861	-185.559	32.3589	-48.569	-185.719	29.7233	-16.8507	-223.283	57.9653	-44.8888	-202.357	34.7393	-35.5694	-189.594	45.5432	-10.1325	-215.357	105.981	-12.7212	-223.941	110.687	21.4285	-184.569	119.612	6.71399	
52	0.433333	-159.152	90.2273	20.3931	-146.949	62.131	0.372637	-140.521	46.7417	-31.5383	-146.393	30.8339	-50.257	-160.639	102.982	-61.4527	-156.357	97.3517	-86.117	-155.39	91.3497	-113.003	-180.28	77.6092	-71.6716	-167.98	47.2767	-71.3613	-165.851	37.0076	-31.5196	-202.51	63.7863	-57.6789	-186.346	33.285	-48.5519	-185.115	31.2732	-14.4974	-221.795	56.9413	-45.012	-202.079	35.6452	-33.8101	-191.039	45.7291	-3.38882	-215.45	105.156	-14.4298	-225.801	112.677	22.7374	-184.983	119.874	4.15108	
53	0.441667	-156.912	89.2228	22.7901	-144.537	61.0229	-4.67857	-140.169	45.3435	-30.165	-145.811	30.5037	-47.5507	-157.999	98.7889	-61.8366	-151.457	88.126	-86.9659	-148.435	77.774	-107.916	-174.95	76.7787	-70.2759	-166.917	42.4176	-67.4511	-168.599	35.0457	-29.5082	-195.814	62.2617	-58.7828	-187.513	32.2697	-48.2079	-181.952	29.7534	-16.7141	-218.509	57.7926	-46.079	-199.999	36.3677	-34.5395	-189.445	45.9339	-6.27615	-219.454	106.371	-12.1514	-223.367	112.65	20.0525	-183.626	119.576	3.44465	
54	0.45	-155.737	88.8693	18.4052	-145.802	60.6458	-1.56611	-140.431	44.6658	-27.9792	-145.221	29.2354	-46.0063	-155.842	92.062	-63.0075	-148.111	76.2804	-87.9205	-145.559	61.4667	-104.128	-179.398	73.7969	-69.2645	-166.487	39.523	-64.1218	-167.46	33.3514	-26.0352	-200.378	59.1807	-57.1994	-188.75	27.699	-44.0549	-182.64	29.7667	-14.036	-217.765	52.9438	-45.6876	-200.81	33.6916	-33.0373	-191.072	47.2099	-6.19497	-217.845	104.822	-14.884	-224.085	109.465	20.7439	-183.408	116.395	4.51576	
55	0.458333	-157.791	87.4905	19.7294	-143.992	58.2992	-3.19969	-143.196	43.9021	-26.377	-141.761	24.8571	-47.1327	-155.256	87.2639	-61.2103	-147.689	67.2368	-82.1527	-143.86	47.7623	-99.3294	-175.789	71.5543	-67.8999	-164.776	36.44	-63.105	-169.931	29.8529	-26.9405	-197.009	60.3138	-56.9486	-186.495	25.3764	-41.8543	-182.975	28.5714	-12.007	-219.501	52.4918	-45.4825	-201.019	32.9048	-35.0709	-192.951	45.2997	-2.12469	-213.489	103.445	-14.1441	-219.043	111.297	17.9455	-184.376	117.864	6.0602	
56	0.466667	-155.241	87.5853	18.3227	-142.068	57.7227	-2.08102	-138.798	41.7215	-26.4363	-140.451	23.9103	-43.845	-151.075	84.1569	-62.4066	-143.774	64.8701	-79.4228	-140.128	45.0455	-94.4672	-174.738	68.6562	-68.9249	-166.829	34.336	-60.6686	-171.163	31.6043	-22.2134	-197.239	58.5399	-56.3022	-186.304	25.2651	-41.1069	-180.985	30.7536	-9.37538	-218.188	55.6892	-44.537	-201.485	31.9979	-36.3633	-192.066	42.3517	-3.9321	-216.567	102.034	-18.9251	-222.843	111.611	19.5554	-181.508	114.943	2.37296	
57	0.475	-158.027	88.1848	22.4408	-144.961	59.8561	0.8442	-143.744	43.2968	-26.4867	-144.085	26.5474	-43.0036	-150.528	82.1362	-62.922	-146.363	63.5806	-80.6074	-140.351	42.4251	-95.7715	-176.044	68.6266	-68.6673	-167.019	36.7155	-63.9712	-169.492	33.0921	-21.1627	-194.704	53.8388	-57.6976	-182.923	25.5835	-43.3196	-180.769	28.6488	-12.6826	-218.852	52.5132	-44.4967	-201.156	28.1386	-32.6733	-189.883	38.8122	-3.97456	-217.033	99.5086	-15.299	-219.118	111.295	18.3164	-185.15	115.817	4.42476	
